<svg xmlns="http://www.w3.org/2000/svg" xmlns:xlink="http://www.w3.org/1999/xlink" width="500" zoomAndPan="magnify" viewBox="0 0 375 374.999991" height="500" preserveAspectRatio="xMidYMid meet" version="1.2"><defs><clipPath id="939339d1f1"><path d="M 46.640625 46.640625 L 328.359375 46.640625 L 328.359375 328.359375 L 46.640625 328.359375 Z M 46.640625 46.640625 "/></clipPath><clipPath id="f7620dc5ae"><path d="M 187.5 46.640625 C 109.703125 46.640625 46.640625 109.703125 46.640625 187.5 C 46.640625 265.296875 109.703125 328.359375 187.5 328.359375 C 265.296875 328.359375 328.359375 265.296875 328.359375 187.5 C 328.359375 109.703125 265.296875 46.640625 187.5 46.640625 Z M 187.5 46.640625 "/></clipPath><clipPath id="9ca7b6aa07"><path d="M 46.640625 46.640625 L 328.359375 46.640625 L 328.359375 328.359375 L 46.640625 328.359375 Z M 46.640625 46.640625 "/></clipPath><clipPath id="b658e9aaa1"><path d="M 187.5 46.640625 C 109.703125 46.640625 46.640625 109.703125 46.640625 187.5 C 46.640625 265.292969 109.703125 328.359375 187.5 328.359375 C 265.292969 328.359375 328.359375 265.292969 328.359375 187.5 C 328.359375 109.703125 265.292969 46.640625 187.5 46.640625 Z M 187.5 46.640625 "/></clipPath><clipPath id="af093dac9a"><path d="M 90.992188 90.992188 L 284.007812 90.992188 L 284.007812 284.007812 L 90.992188 284.007812 Z M 90.992188 90.992188 "/></clipPath><clipPath id="b7a33038c1"><path d="M 187.5 90.992188 C 134.199219 90.992188 90.992188 134.199219 90.992188 187.5 C 90.992188 240.800781 134.199219 284.007812 187.5 284.007812 C 240.800781 284.007812 284.007812 240.800781 284.007812 187.5 C 284.007812 134.199219 240.800781 90.992188 187.5 90.992188 Z M 187.5 90.992188 "/></clipPath><clipPath id="f538f602de"><path d="M 90.992188 90.992188 L 283.742188 90.992188 L 283.742188 283.742188 L 90.992188 283.742188 Z M 90.992188 90.992188 "/></clipPath><clipPath id="872db4836c"><path d="M 187.367188 90.992188 C 134.140625 90.992188 90.992188 134.140625 90.992188 187.367188 C 90.992188 240.59375 134.140625 283.742188 187.367188 283.742188 C 240.59375 283.742188 283.742188 240.59375 283.742188 187.367188 C 283.742188 134.140625 240.59375 90.992188 187.367188 90.992188 Z M 187.367188 90.992188 "/></clipPath><clipPath id="d19260364a"><path d="M 84.179688 124.390625 L 90.992188 124.390625 L 90.992188 131.203125 L 84.179688 131.203125 Z M 84.179688 124.390625 "/></clipPath><clipPath id="20be9bcb6b"><path d="M 87.585938 124.390625 C 85.703125 124.390625 84.179688 125.914062 84.179688 127.796875 C 84.179688 129.675781 85.703125 131.203125 87.585938 131.203125 C 89.46875 131.203125 90.992188 129.675781 90.992188 127.796875 C 90.992188 125.914062 89.46875 124.390625 87.585938 124.390625 Z M 87.585938 124.390625 "/></clipPath><clipPath id="64afd835da"><path d="M 284.007812 127.796875 L 290.820312 127.796875 L 290.820312 134.609375 L 284.007812 134.609375 Z M 284.007812 127.796875 "/></clipPath><clipPath id="59ac4f8217"><path d="M 287.414062 127.796875 C 285.53125 127.796875 284.007812 129.320312 284.007812 131.203125 C 284.007812 133.085938 285.53125 134.609375 287.414062 134.609375 C 289.296875 134.609375 290.820312 133.085938 290.820312 131.203125 C 290.820312 129.320312 289.296875 127.796875 287.414062 127.796875 Z M 287.414062 127.796875 "/></clipPath><clipPath id="31926b1afe"><path d="M 112.5 112.5 L 262.5 112.5 L 262.5 262.5 L 112.5 262.5 Z M 112.5 112.5 "/></clipPath></defs><g id="008b680eb4"><g clip-rule="nonzero" clip-path="url(#939339d1f1)"><g clip-rule="nonzero" clip-path="url(#f7620dc5ae)"><path style=" stroke:none;fill-rule:nonzero;fill:#f9f8f6;fill-opacity:1;" d="M 46.640625 46.640625 L 328.359375 46.640625 L 328.359375 328.359375 L 46.640625 328.359375 Z M 46.640625 46.640625 "/></g></g><g clip-rule="nonzero" clip-path="url(#9ca7b6aa07)"><g clip-rule="nonzero" clip-path="url(#b658e9aaa1)"><path style="fill:none;stroke-width:8;stroke-linecap:butt;stroke-linejoin:miter;stroke:#000000;stroke-opacity:1;stroke-miterlimit:4;" d="M 187.813898 0.00139208 C 84.084725 0.00139208 0.00138608 84.084731 0.00138608 187.813904 C 0.00138608 291.53787 84.084725 375.626417 187.813898 375.626417 C 291.537864 375.626417 375.626411 291.53787 375.626411 187.813904 C 375.626411 84.084731 291.537864 0.00139208 187.813898 0.00139208 Z M 187.813898 0.00139208 " transform="matrix(0.75,0,0,0.75,46.639585,46.639581)"/></g></g><g clip-rule="nonzero" clip-path="url(#af093dac9a)"><g clip-rule="nonzero" clip-path="url(#b7a33038c1)"><path style=" stroke:none;fill-rule:nonzero;fill:#494848;fill-opacity:1;" d="M 90.992188 90.992188 L 284.007812 90.992188 L 284.007812 284.007812 L 90.992188 284.007812 Z M 90.992188 90.992188 "/></g></g><g clip-rule="nonzero" clip-path="url(#f538f602de)"><g clip-rule="nonzero" clip-path="url(#872db4836c)"><path style="fill:none;stroke-width:8;stroke-linecap:butt;stroke-linejoin:miter;stroke:#000000;stroke-opacity:1;stroke-miterlimit:4;" d="M 128.67142 -0.000455174 C 57.607742 -0.000455174 -0.000461182 57.607748 -0.000461182 128.671426 C -0.000461182 199.735103 57.607742 257.343307 128.67142 257.343307 C 199.735097 257.343307 257.343301 199.735103 257.343301 128.671426 C 257.343301 57.607748 199.735097 -0.000455174 128.67142 -0.000455174 Z M 128.67142 -0.000455174 " transform="matrix(0.748998,0,0,0.748998,90.992533,90.992528)"/></g></g><g style="fill:#000000;fill-opacity:1;"><g transform="translate(109.684544, 111.341626)"><path style="stroke:none" d="M 6.625 -17.453125 C 7.914062 -15.941406 8.710938 -14.445312 9.015625 -12.96875 C 9.328125 -11.488281 9.179688 -10.050781 8.578125 -8.65625 C 7.984375 -7.257812 6.945312 -5.929688 5.46875 -4.671875 L 1.828125 -1.5625 L -9.59375 -14.9375 L -5.546875 -18.390625 C -4.191406 -19.546875 -2.8125 -20.289062 -1.40625 -20.625 C -0.0078125 -20.96875 1.367188 -20.882812 2.734375 -20.375 C 4.109375 -19.863281 5.40625 -18.890625 6.625 -17.453125 Z M 5.03125 -16 C 4.007812 -17.195312 2.960938 -18.015625 1.890625 -18.453125 C 0.828125 -18.898438 -0.25 -18.984375 -1.34375 -18.703125 C -2.445312 -18.421875 -3.554688 -17.804688 -4.671875 -16.859375 L -6.90625 -14.9375 L 2.25 -4.21875 L 4.140625 -5.828125 C 5.984375 -7.410156 6.976562 -9.050781 7.125 -10.75 C 7.269531 -12.445312 6.570312 -14.195312 5.03125 -16 Z M 5.03125 -16 "/></g></g><g style="fill:#000000;fill-opacity:1;"><g transform="translate(133.049315, 93.614939)"><path style="stroke:none" d="M 10.953125 -5.375 L 2.15625 -1.0625 L -5.59375 -16.859375 L 3.203125 -21.171875 L 4 -19.546875 L -2.953125 -16.140625 L -0.453125 -11.03125 L 6.09375 -14.25 L 6.875 -12.65625 L 0.328125 -9.4375 L 3.203125 -3.59375 L 10.15625 -7 Z M 10.953125 -5.375 "/></g></g><g style="fill:#000000;fill-opacity:1;"><g transform="translate(156.251256, 83.647058)"><path style="stroke:none" d="M 13.125 -2.875 L 9.828125 -7.875 L 2.9375 -6.359375 L 2.015625 -0.4375 L 0 0 L 2.9375 -18.71875 L 4.734375 -19.109375 L 15.203125 -3.328125 Z M 8.828125 -9.515625 L 5.640625 -14.5 C 5.554688 -14.613281 5.425781 -14.820312 5.25 -15.125 C 5.070312 -15.425781 4.890625 -15.734375 4.703125 -16.046875 C 4.523438 -16.367188 4.375 -16.628906 4.25 -16.828125 C 4.25 -16.503906 4.234375 -16.171875 4.203125 -15.828125 C 4.179688 -15.484375 4.15625 -15.164062 4.125 -14.875 C 4.101562 -14.582031 4.085938 -14.34375 4.078125 -14.15625 L 3.21875 -8.28125 Z M 8.828125 -9.515625 "/></g></g><g style="fill:#000000;fill-opacity:1;"><g transform="translate(182.973203, 79.270826)"><path style="stroke:none" d="M 7.703125 -17.359375 C 9.148438 -17.304688 10.335938 -17.085938 11.265625 -16.703125 C 12.203125 -16.316406 12.890625 -15.753906 13.328125 -15.015625 C 13.773438 -14.273438 13.976562 -13.34375 13.9375 -12.21875 C 13.914062 -11.28125 13.722656 -10.503906 13.359375 -9.890625 C 13.003906 -9.285156 12.550781 -8.796875 12 -8.421875 C 11.445312 -8.054688 10.851562 -7.78125 10.21875 -7.59375 L 14.796875 0.46875 L 12.421875 0.390625 L 8.34375 -7.09375 L 4.6875 -7.203125 L 4.453125 0.140625 L 2.40625 0.078125 L 2.953125 -17.5 Z M 7.53125 -15.59375 L 4.953125 -15.671875 L 4.734375 -8.9375 L 7.53125 -8.84375 C 8.957031 -8.800781 10.019531 -9.0625 10.71875 -9.625 C 11.425781 -10.1875 11.796875 -11.035156 11.828125 -12.171875 C 11.867188 -13.367188 11.535156 -14.222656 10.828125 -14.734375 C 10.128906 -15.253906 9.03125 -15.539062 7.53125 -15.59375 Z M 7.53125 -15.59375 "/></g></g><g style="fill:#000000;fill-opacity:1;"><g transform="translate(209.852486, 81.802126)"><path style="stroke:none" d=""/></g></g><g style="fill:#000000;fill-opacity:1;"><g transform="translate(227.335846, 86.7405)"><path style="stroke:none" d="M 14.09375 6.984375 L 12.265625 6.078125 L 15.953125 -1.359375 L 7.671875 -5.453125 L 3.984375 1.984375 L 2.15625 1.0625 L 9.96875 -14.703125 L 11.796875 -13.78125 L 8.46875 -7.0625 L 16.75 -2.96875 L 20.078125 -9.6875 L 21.90625 -8.78125 Z M 14.09375 6.984375 "/></g></g><g style="fill:#000000;fill-opacity:1;"><g transform="translate(253.039657, 101.341524)"><path style="stroke:none" d="M 16.96875 -8.546875 C 18.050781 -7.585938 18.832031 -6.660156 19.3125 -5.765625 C 19.789062 -4.878906 19.960938 -4.003906 19.828125 -3.140625 C 19.703125 -2.285156 19.265625 -1.4375 18.515625 -0.59375 C 17.898438 0.113281 17.257812 0.585938 16.59375 0.828125 C 15.9375 1.066406 15.273438 1.148438 14.609375 1.078125 C 13.941406 1.015625 13.304688 0.859375 12.703125 0.609375 L 11.140625 9.734375 L 9.34375 8.171875 L 10.9375 -0.1875 L 8.1875 -2.59375 L 3.359375 2.9375 L 1.8125 1.578125 L 13.390625 -11.671875 Z M 15.71875 -7.296875 L 13.78125 -8.984375 L 9.328125 -3.890625 L 11.421875 -2.0625 C 12.492188 -1.113281 13.476562 -0.632812 14.375 -0.625 C 15.28125 -0.625 16.109375 -1.050781 16.859375 -1.90625 C 17.648438 -2.800781 17.9375 -3.675781 17.71875 -4.53125 C 17.507812 -5.382812 16.84375 -6.304688 15.71875 -7.296875 Z M 15.71875 -7.296875 "/></g></g><g clip-rule="nonzero" clip-path="url(#d19260364a)"><g clip-rule="nonzero" clip-path="url(#20be9bcb6b)"><path style=" stroke:none;fill-rule:nonzero;fill:#2b2a28;fill-opacity:1;" d="M 84.179688 124.390625 L 90.992188 124.390625 L 90.992188 131.203125 L 84.179688 131.203125 Z M 84.179688 124.390625 "/></g></g><g clip-rule="nonzero" clip-path="url(#64afd835da)"><g clip-rule="nonzero" clip-path="url(#59ac4f8217)"><path style=" stroke:none;fill-rule:nonzero;fill:#2b2a28;fill-opacity:1;" d="M 284.007812 127.796875 L 290.820312 127.796875 L 290.820312 134.609375 L 284.007812 134.609375 Z M 284.007812 127.796875 "/></g></g><g style="fill:#000000;fill-opacity:1;"><g transform="translate(66.042887, 152.092496)"><path style="stroke:none" d="M 1.984375 13.03125 C 0.960938 12.8125 0.148438 12.367188 -0.453125 11.703125 C -1.066406 11.046875 -1.460938 10.222656 -1.640625 9.234375 C -1.828125 8.242188 -1.785156 7.132812 -1.515625 5.90625 C -1.378906 5.257812 -1.21875 4.648438 -1.03125 4.078125 C -0.84375 3.515625 -0.632812 3 -0.40625 2.53125 C -0.1875 2.070312 0.046875 1.679688 0.296875 1.359375 L 2.203125 1.765625 C 1.847656 2.304688 1.472656 2.976562 1.078125 3.78125 C 0.691406 4.582031 0.394531 5.445312 0.1875 6.375 C 0.0078125 7.226562 -0.03125 7.976562 0.0625 8.625 C 0.164062 9.28125 0.398438 9.804688 0.765625 10.203125 C 1.140625 10.597656 1.628906 10.863281 2.234375 11 C 2.828125 11.125 3.347656 11.097656 3.796875 10.921875 C 4.242188 10.753906 4.695312 10.40625 5.15625 9.875 C 5.613281 9.351562 6.132812 8.613281 6.71875 7.65625 C 7.144531 6.976562 7.570312 6.394531 8 5.90625 C 8.425781 5.414062 8.878906 5.023438 9.359375 4.734375 C 9.835938 4.441406 10.351562 4.253906 10.90625 4.171875 C 11.457031 4.085938 12.070312 4.117188 12.75 4.265625 C 13.664062 4.460938 14.398438 4.863281 14.953125 5.46875 C 15.503906 6.082031 15.863281 6.84375 16.03125 7.75 C 16.195312 8.65625 16.164062 9.644531 15.9375 10.71875 C 15.738281 11.632812 15.46875 12.460938 15.125 13.203125 C 14.789062 13.941406 14.410156 14.609375 13.984375 15.203125 L 12.390625 14.21875 C 12.796875 13.644531 13.15625 13.023438 13.46875 12.359375 C 13.78125 11.703125 14.019531 11.007812 14.1875 10.28125 C 14.34375 9.539062 14.367188 8.894531 14.265625 8.34375 C 14.160156 7.800781 13.941406 7.351562 13.609375 7 C 13.273438 6.644531 12.835938 6.410156 12.296875 6.296875 C 11.691406 6.171875 11.160156 6.191406 10.703125 6.359375 C 10.242188 6.523438 9.796875 6.851562 9.359375 7.34375 C 8.929688 7.832031 8.453125 8.503906 7.921875 9.359375 C 7.335938 10.296875 6.765625 11.070312 6.203125 11.6875 C 5.640625 12.3125 5.019531 12.738281 4.34375 12.96875 C 3.675781 13.207031 2.890625 13.226562 1.984375 13.03125 Z M 1.984375 13.03125 "/></g></g><g style="fill:#000000;fill-opacity:1;"><g transform="translate(61.36443, 181.130141)"><path style="stroke:none" d="M 0.5625 10.125 L 15.765625 3.375 L 15.765625 3.28125 C 15.453125 3.320312 15.054688 3.367188 14.578125 3.421875 C 14.109375 3.484375 13.59375 3.535156 13.03125 3.578125 C 12.476562 3.617188 11.910156 3.660156 11.328125 3.703125 L 0.234375 4.3125 L 0.140625 2.40625 L 17.703125 1.4375 L 17.859375 4.453125 L 3.5625 10.84375 L 3.5625 10.921875 L 18.484375 15.75 L 18.65625 18.75 L 1.09375 19.71875 L 0.984375 17.703125 L 12.234375 17.078125 C 12.753906 17.046875 13.273438 17.023438 13.796875 17.015625 C 14.328125 17.003906 14.828125 17 15.296875 17 C 15.765625 17 16.171875 17 16.515625 17 L 16.5 16.90625 L 0.65625 11.796875 Z M 0.5625 10.125 "/></g></g><g style="fill:#000000;fill-opacity:1;"><g transform="translate(66.126923, 218.868039)"><path style="stroke:none" d="M 4.390625 12.703125 L 8.953125 8.84375 L 6.640625 2.171875 L 0.671875 1.953125 L 0 0 L 18.9375 0.734375 L 19.53125 2.46875 L 5.078125 14.703125 Z M 10.484375 7.65625 L 15.0625 3.921875 C 15.164062 3.816406 15.351562 3.65625 15.625 3.4375 C 15.90625 3.226562 16.191406 3.015625 16.484375 2.796875 C 16.785156 2.585938 17.03125 2.414062 17.21875 2.28125 C 16.882812 2.300781 16.546875 2.316406 16.203125 2.328125 C 15.867188 2.347656 15.554688 2.363281 15.265625 2.375 C 14.972656 2.382812 14.726562 2.390625 14.53125 2.390625 L 8.59375 2.21875 Z M 10.484375 7.65625 "/></g></g><g style="fill:#000000;fill-opacity:1;"><g transform="translate(78.153572, 247.703372)"><path style="stroke:none" d="M 18.640625 -3.65625 C 19.429688 -2.4375 19.929688 -1.332031 20.140625 -0.34375 C 20.359375 0.632812 20.289062 1.515625 19.9375 2.296875 C 19.582031 3.085938 18.9375 3.789062 18 4.40625 C 17.21875 4.914062 16.472656 5.195312 15.765625 5.25 C 15.054688 5.3125 14.390625 5.222656 13.765625 4.984375 C 13.148438 4.742188 12.582031 4.421875 12.0625 4.015625 L 8.109375 12.375 L 6.796875 10.390625 L 10.578125 2.765625 L 8.578125 -0.296875 L 2.4375 3.71875 L 1.3125 2.015625 L 16.03125 -7.625 Z M 17.09375 -2.78125 L 15.6875 -4.953125 L 10.03125 -1.25 L 11.5625 1.09375 C 12.34375 2.289062 13.164062 3.007812 14.03125 3.25 C 14.894531 3.5 15.800781 3.316406 16.75 2.703125 C 17.75 2.046875 18.257812 1.28125 18.28125 0.40625 C 18.3125 -0.46875 17.914062 -1.53125 17.09375 -2.78125 Z M 17.09375 -2.78125 "/></g></g><g style="fill:#000000;fill-opacity:1;"><g transform="translate(96.620391, 272.342623)"><path style="stroke:none" d="M 5.703125 5.34375 L 4.203125 3.9375 L 14.984375 -7.578125 L 10.9375 -11.359375 L 12.1875 -12.6875 L 21.75 -3.75 L 20.5 -2.421875 L 16.484375 -6.171875 Z M 5.703125 5.34375 "/></g></g><g style="fill:#000000;fill-opacity:1;"><g transform="translate(118.908876, 290.61833)"><path style="stroke:none" d=""/></g></g><g style="fill:#000000;fill-opacity:1;"><g transform="translate(138.018808, 301.033952)"><path style="stroke:none" d="M 12.65625 -14.15625 C 14.019531 -13.664062 15.085938 -13.09375 15.859375 -12.4375 C 16.628906 -11.78125 17.109375 -11.03125 17.296875 -10.1875 C 17.484375 -9.34375 17.382812 -8.394531 17 -7.34375 C 16.6875 -6.457031 16.265625 -5.78125 15.734375 -5.3125 C 15.210938 -4.84375 14.628906 -4.515625 13.984375 -4.328125 C 13.347656 -4.148438 12.703125 -4.066406 12.046875 -4.078125 L 13.9375 4.984375 L 11.703125 4.1875 L 10.109375 -4.1875 L 6.65625 -5.421875 L 4.1875 1.5 L 2.265625 0.8125 L 8.1875 -15.75 Z M 11.953125 -12.53125 L 9.515625 -13.40625 L 7.25 -7.046875 L 9.890625 -6.109375 C 11.234375 -5.628906 12.320312 -5.550781 13.15625 -5.875 C 13.988281 -6.195312 14.597656 -6.890625 14.984375 -7.953125 C 15.390625 -9.078125 15.335938 -9.992188 14.828125 -10.703125 C 14.316406 -11.421875 13.359375 -12.03125 11.953125 -12.53125 Z M 11.953125 -12.53125 "/></g></g><g style="fill:#000000;fill-opacity:1;"><g transform="translate(167.616485, 309.539722)"><path style="stroke:none" d="M 12.140625 1.265625 L 2.390625 0.25 L 4.21875 -17.25 L 13.96875 -16.234375 L 13.78125 -14.4375 L 6.0625 -15.234375 L 5.46875 -9.5625 L 12.734375 -8.8125 L 12.546875 -7.046875 L 5.28125 -7.796875 L 4.609375 -1.328125 L 12.328125 -0.53125 Z M 12.140625 1.265625 "/></g></g><g style="fill:#000000;fill-opacity:1;"><g transform="translate(196.894903, 310.823218)"><path style="stroke:none" d="M 7.65625 -17.21875 C 6.695312 -17.09375 5.851562 -16.8125 5.125 -16.375 C 4.394531 -15.945312 3.804688 -15.382812 3.359375 -14.6875 C 2.921875 -13.988281 2.617188 -13.179688 2.453125 -12.265625 C 2.285156 -11.347656 2.273438 -10.335938 2.421875 -9.234375 C 2.628906 -7.765625 3.035156 -6.519531 3.640625 -5.5 C 4.242188 -4.488281 5.039062 -3.75 6.03125 -3.28125 C 7.019531 -2.820312 8.195312 -2.6875 9.5625 -2.875 C 10.34375 -2.976562 11.066406 -3.144531 11.734375 -3.375 C 12.398438 -3.601562 13.046875 -3.863281 13.671875 -4.15625 L 13.921875 -2.390625 C 13.316406 -2.054688 12.671875 -1.785156 11.984375 -1.578125 C 11.296875 -1.367188 10.472656 -1.195312 9.515625 -1.0625 C 7.742188 -0.820312 6.210938 -0.988281 4.921875 -1.5625 C 3.640625 -2.132812 2.609375 -3.046875 1.828125 -4.296875 C 1.046875 -5.554688 0.53125 -7.101562 0.28125 -8.9375 C 0.101562 -10.257812 0.125 -11.492188 0.34375 -12.640625 C 0.5625 -13.785156 0.972656 -14.800781 1.578125 -15.6875 C 2.179688 -16.582031 2.972656 -17.316406 3.953125 -17.890625 C 4.929688 -18.460938 6.09375 -18.84375 7.4375 -19.03125 C 8.3125 -19.144531 9.171875 -19.171875 10.015625 -19.109375 C 10.867188 -19.054688 11.644531 -18.90625 12.34375 -18.65625 L 11.765625 -16.84375 C 11.179688 -17.019531 10.539062 -17.148438 9.84375 -17.234375 C 9.15625 -17.328125 8.425781 -17.320312 7.65625 -17.21875 Z M 7.65625 -17.21875 "/></g></g><g style="fill:#000000;fill-opacity:1;"><g transform="translate(227.460005, 304.659748)"><path style="stroke:none" d="M 0.0625 -18.984375 C 1.40625 -19.523438 2.582031 -19.804688 3.59375 -19.828125 C 4.601562 -19.847656 5.457031 -19.601562 6.15625 -19.09375 C 6.851562 -18.59375 7.414062 -17.820312 7.84375 -16.78125 C 8.1875 -15.914062 8.316406 -15.128906 8.234375 -14.421875 C 8.160156 -13.722656 7.941406 -13.09375 7.578125 -12.53125 C 7.210938 -11.976562 6.785156 -11.488281 6.296875 -11.0625 L 13.71875 -5.53125 L 11.515625 -4.640625 L 4.765625 -9.84375 L 1.375 -8.484375 L 4.125 -1.671875 L 2.234375 -0.90625 L -4.34375 -17.21875 Z M 0.59375 -17.3125 L -1.796875 -16.359375 L 0.734375 -10.09375 L 3.328125 -11.125 C 4.648438 -11.664062 5.519531 -12.332031 5.9375 -13.125 C 6.351562 -13.925781 6.347656 -14.851562 5.921875 -15.90625 C 5.472656 -17.007812 4.820312 -17.660156 3.96875 -17.859375 C 3.113281 -18.054688 1.988281 -17.875 0.59375 -17.3125 Z M 0.59375 -17.3125 "/></g></g><g style="fill:#000000;fill-opacity:1;"><g transform="translate(255.442132, 291.378965)"><path style="stroke:none" d="M 2.09375 -23.5 L 8.90625 -14.359375 C 9.644531 -13.367188 10.097656 -12.332031 10.265625 -11.25 C 10.441406 -10.175781 10.289062 -9.113281 9.8125 -8.0625 C 9.332031 -7.007812 8.484375 -6.03125 7.265625 -5.125 C 5.523438 -3.820312 3.847656 -3.300781 2.234375 -3.5625 C 0.617188 -3.832031 -0.773438 -4.757812 -1.953125 -6.34375 L -8.734375 -15.4375 L -7.078125 -16.671875 L -0.265625 -7.53125 C 0.628906 -6.332031 1.632812 -5.644531 2.75 -5.46875 C 3.863281 -5.300781 5.050781 -5.6875 6.3125 -6.625 C 7.164062 -7.257812 7.753906 -7.9375 8.078125 -8.65625 C 8.398438 -9.375 8.484375 -10.113281 8.328125 -10.875 C 8.179688 -11.644531 7.828125 -12.398438 7.265625 -13.140625 L 0.453125 -22.296875 Z M 2.09375 -23.5 "/></g></g><g style="fill:#000000;fill-opacity:1;"><g transform="translate(280.742919, 269.622866)"><path style="stroke:none" d="M 1.5625 -1.828125 L -11.796875 -13.28125 L -10.46875 -14.828125 L 2.890625 -3.375 Z M 1.5625 -1.828125 "/></g></g><g style="fill:#000000;fill-opacity:1;"><g transform="translate(294.236279, 251.998343)"><path style="stroke:none" d="M 3.78125 -6.84375 L 2.78125 -5.03125 L -11.03125 -12.671875 L -13.703125 -7.828125 L -15.28125 -8.703125 L -8.953125 -20.171875 L -7.375 -19.296875 L -10.03125 -14.484375 Z M 3.78125 -6.84375 "/></g></g><g style="fill:#000000;fill-opacity:1;"><g transform="translate(306.512456, 225.901742)"><path style="stroke:none" d="M 0.71875 -2.296875 L -16.078125 -7.53125 L -15.46875 -9.484375 L 1.328125 -4.25 Z M 0.71875 -2.296875 "/></g></g><g style="fill:#000000;fill-opacity:1;"><g transform="translate(312.129859, 204.21716)"><path style="stroke:none" d="M 1.25 -16.109375 L 1.0625 -13.75 L -14.40625 -5.34375 L -14.421875 -5.234375 C -14.015625 -5.234375 -13.5625 -5.226562 -13.0625 -5.21875 C -12.570312 -5.21875 -12.039062 -5.207031 -11.46875 -5.1875 C -10.90625 -5.164062 -10.332031 -5.128906 -9.75 -5.078125 L 0.328125 -4.296875 L 0.1875 -2.40625 L -17.359375 -3.765625 L -17.171875 -6.09375 L -1.734375 -14.484375 L -1.734375 -14.5625 C -2.015625 -14.5625 -2.414062 -14.570312 -2.9375 -14.59375 C -3.457031 -14.613281 -4.015625 -14.632812 -4.609375 -14.65625 C -5.203125 -14.6875 -5.757812 -14.722656 -6.28125 -14.765625 L -16.4375 -15.546875 L -16.296875 -17.46875 Z M 1.25 -16.109375 "/></g></g><g style="fill:#000000;fill-opacity:1;"><g transform="translate(312.600277, 169.798572)"><path style="stroke:none" d="M -10.953125 -7.953125 L -12.140625 -14 L -3.765625 -15.65625 C -3.285156 -14.789062 -2.875 -13.894531 -2.53125 -12.96875 C -2.195312 -12.050781 -1.914062 -11.003906 -1.6875 -9.828125 C -1.332031 -8.023438 -1.394531 -6.4375 -1.875 -5.0625 C -2.351562 -3.695312 -3.1875 -2.5625 -4.375 -1.65625 C -5.570312 -0.757812 -7.082031 -0.132812 -8.90625 0.21875 C -10.695312 0.570312 -12.328125 0.523438 -13.796875 0.078125 C -15.265625 -0.367188 -16.5 -1.1875 -17.5 -2.375 C -18.5 -3.5625 -19.1875 -5.085938 -19.5625 -6.953125 C -19.75 -7.921875 -19.832031 -8.851562 -19.8125 -9.75 C -19.800781 -10.644531 -19.710938 -11.492188 -19.546875 -12.296875 L -17.640625 -11.875 C -17.785156 -11.1875 -17.882812 -10.4375 -17.9375 -9.625 C -17.988281 -8.820312 -17.929688 -8.007812 -17.765625 -7.1875 C -17.492188 -5.78125 -16.96875 -4.628906 -16.1875 -3.734375 C -15.40625 -2.847656 -14.429688 -2.242188 -13.265625 -1.921875 C -12.097656 -1.609375 -10.785156 -1.597656 -9.328125 -1.890625 C -7.890625 -2.171875 -6.679688 -2.644531 -5.703125 -3.3125 C -4.722656 -3.976562 -4.035156 -4.859375 -3.640625 -5.953125 C -3.242188 -7.054688 -3.203125 -8.382812 -3.515625 -9.9375 C -3.660156 -10.71875 -3.832031 -11.378906 -4.03125 -11.921875 C -4.238281 -12.460938 -4.453125 -12.945312 -4.671875 -13.375 L -9.953125 -12.34375 L -9.15625 -8.3125 Z M -10.953125 -7.953125 "/></g></g><path style=" stroke:none;fill-rule:nonzero;fill:#f9f8f6;fill-opacity:1;" d="M 187.976562 220.375 C 186.152344 220.375 184.054688 220.230469 182.046875 219.933594 C 177.75 219.289062 172.019531 217.726562 168.238281 213.945312 C 166.613281 215.738281 162.625 219.152344 155.824219 219.152344 L 147.273438 219.152344 C 146.84375 219.152344 146.457031 218.902344 146.28125 218.511719 C 146.109375 218.117188 146.183594 217.660156 146.472656 217.34375 C 146.75 217.035156 153.40625 209.796875 160.699219 208.972656 C 161.152344 208.917969 161.515625 208.871094 161.804688 208.824219 C 161.679688 208.738281 161.554688 208.65625 161.4375 208.578125 C 159.964844 207.613281 157.949219 206.285156 156.738281 204.292969 C 153.527344 198.992188 152.660156 191.65625 154.09375 181.867188 C 154.507812 179.046875 155.160156 175.898438 155.789062 172.851562 C 157.4375 164.875 159.308594 155.835938 156.425781 153.996094 C 151.402344 150.785156 150.246094 148.175781 149.585938 143.5625 C 149.453125 143.007812 149.515625 142.179688 150.113281 141.523438 C 151.011719 140.535156 152.734375 140.3125 155.378906 140.839844 C 156.671875 141.097656 158.40625 141.371094 160.246094 141.660156 C 168.113281 142.894531 173.355469 143.855469 174.515625 145.824219 C 175.292969 147.148438 176.6875 151.695312 178.894531 159.027344 C 180.109375 163.074219 181.367188 167.257812 182.234375 169.691406 C 184.21875 175.269531 192.023438 178.902344 197.195312 181.308594 L 197.371094 181.390625 C 216.515625 190.292969 226.546875 197.25 228.039062 202.652344 C 229.449219 207.769531 228.78125 213.472656 226.375 216.84375 C 225.1875 218.511719 223.699219 219.445312 222.0625 219.546875 C 217.859375 219.808594 199.601562 219.558594 198.828125 219.546875 C 198.4375 219.542969 198.085938 219.332031 197.894531 218.992188 C 197.707031 218.65625 197.714844 218.242188 197.914062 217.910156 C 198 217.769531 199.441406 215.378906 201.078125 213.40625 L 196.21875 213.480469 C 196.210938 213.480469 196.207031 213.480469 196.199219 213.480469 C 195.609375 213.480469 195.128906 213.007812 195.117188 212.417969 C 195.109375 211.820312 195.585938 211.328125 196.183594 211.316406 L 203.691406 211.203125 C 203.699219 211.199219 203.703125 211.199219 203.710938 211.199219 C 204.171875 211.199219 204.582031 211.496094 204.734375 211.933594 C 204.886719 212.378906 204.734375 212.867188 204.359375 213.148438 C 203.253906 213.976562 201.824219 215.902344 200.804688 217.410156 C 205.746094 217.46875 218.601562 217.59375 221.929688 217.386719 C 223.144531 217.308594 224.058594 216.367188 224.617188 215.585938 C 226.320312 213.199219 227.390625 208.453125 225.953125 203.230469 C 225.398438 201.21875 222.671875 197.601562 212.847656 191.789062 C 206.375 187.964844 199.425781 184.730469 196.457031 183.351562 L 196.28125 183.269531 C 190.785156 180.710938 182.480469 176.851562 180.195312 170.417969 C 179.308594 167.929688 178.046875 163.722656 176.820312 159.652344 C 175.195312 154.246094 173.351562 148.117188 172.652344 146.921875 C 172.605469 146.847656 172.101562 146.179688 168.296875 145.300781 C 165.785156 144.722656 162.664062 144.230469 159.910156 143.796875 C 158.046875 143.503906 156.289062 143.230469 154.953125 142.960938 C 152.304688 142.429688 151.742188 142.953125 151.71875 142.972656 C 151.695312 142.996094 151.691406 143.03125 151.695312 143.058594 C 151.71875 143.121094 151.707031 143.117188 151.71875 143.195312 C 152.273438 147.101562 153.03125 149.257812 157.589844 152.171875 C 161.730469 154.816406 159.871094 163.789062 157.910156 173.289062 C 157.285156 176.304688 156.640625 179.421875 156.234375 182.183594 C 154.878906 191.453125 155.648438 198.320312 158.589844 203.171875 C 159.542969 204.746094 161.324219 205.914062 162.625 206.769531 C 164.015625 207.6875 165.023438 208.347656 164.757812 209.460938 C 164.5 210.535156 163.324219 210.851562 160.945312 211.121094 C 156.582031 211.617188 152.300781 214.878906 149.941406 216.988281 L 155.824219 216.988281 C 163.648438 216.988281 167.144531 211.902344 167.289062 211.683594 C 167.476562 211.398438 167.792969 211.222656 168.132812 211.203125 C 168.472656 211.1875 168.804688 211.328125 169.023438 211.59375 C 174.316406 217.984375 186.628906 218.554688 190.613281 218.09375 C 189.453125 216.78125 187.445312 214.679688 186.097656 213.304688 C 185.679688 212.875 185.6875 212.191406 186.113281 211.773438 C 186.539062 211.355469 187.226562 211.363281 187.644531 211.789062 C 188.472656 212.632812 192.628906 216.902344 193.316406 218.015625 C 193.65625 218.566406 193.503906 219.253906 192.953125 219.652344 C 192.289062 220.128906 190.363281 220.375 187.976562 220.375 "/><path style=" stroke:none;fill-rule:nonzero;fill:#f9f8f6;fill-opacity:1;" d="M 168.1875 213.363281 C 167.910156 213.363281 167.628906 213.257812 167.417969 213.039062 C 166.015625 211.609375 161.960938 208.925781 161.917969 208.898438 C 161.421875 208.570312 161.285156 207.898438 161.613281 207.398438 C 161.941406 206.902344 162.613281 206.765625 163.113281 207.09375 C 163.285156 207.207031 167.398438 209.929688 168.960938 211.527344 C 169.382812 211.953125 169.375 212.636719 168.945312 213.054688 C 168.734375 213.261719 168.460938 213.363281 168.1875 213.363281 "/><path style=" stroke:none;fill-rule:nonzero;fill:#f9f8f6;fill-opacity:1;" d="M 188.03125 214.828125 C 187.746094 214.828125 187.460938 214.710938 187.246094 214.492188 C 185.578125 212.734375 177.550781 206.496094 177.472656 206.433594 C 177 206.066406 176.914062 205.386719 177.28125 204.914062 C 177.644531 204.441406 178.324219 204.355469 178.796875 204.722656 C 179.132812 204.984375 187.035156 211.125 188.816406 213 C 189.226562 213.429688 189.210938 214.117188 188.777344 214.527344 C 188.566406 214.726562 188.300781 214.828125 188.03125 214.828125 "/><path style=" stroke:none;fill-rule:nonzero;fill:#f9f8f6;fill-opacity:1;" d="M 203.710938 213.363281 C 203.390625 213.363281 203.070312 213.21875 202.855469 212.945312 C 202.492188 212.476562 202.574219 211.796875 203.042969 211.429688 C 203.15625 211.339844 205.917969 209.210938 212.179688 206.976562 C 212.738281 206.777344 213.359375 207.070312 213.5625 207.632812 C 213.761719 208.195312 213.46875 208.8125 212.90625 209.015625 C 207.019531 211.117188 204.398438 213.117188 204.375 213.136719 C 204.175781 213.289062 203.941406 213.363281 203.710938 213.363281 "/><path style=" stroke:none;fill-rule:nonzero;fill:#f9f8f6;fill-opacity:1;" d="M 163.308594 163.273438 C 162.769531 163.273438 162.304688 162.867188 162.238281 162.320312 C 161.921875 159.714844 158.386719 155.855469 157.050781 154.585938 C 156.617188 154.175781 156.597656 153.492188 157.007812 153.058594 C 157.421875 152.625 158.105469 152.605469 158.539062 153.015625 C 159.089844 153.535156 163.917969 158.214844 164.386719 162.058594 C 164.457031 162.652344 164.035156 163.191406 163.441406 163.265625 C 163.398438 163.269531 163.355469 163.273438 163.308594 163.273438 "/><path style=" stroke:none;fill-rule:nonzero;fill:#f9f8f6;fill-opacity:1;" d="M 208.027344 209.933594 C 200.304688 209.933594 184.714844 208.246094 184.015625 208.171875 C 183.660156 208.132812 183.402344 207.8125 183.441406 207.457031 C 183.480469 207.097656 183.796875 206.84375 184.15625 206.878906 C 184.335938 206.898438 202.265625 208.839844 209.28125 208.621094 C 209.636719 208.597656 209.9375 208.890625 209.949219 209.246094 C 209.960938 209.605469 209.679688 209.90625 209.320312 209.917969 C 208.921875 209.929688 208.488281 209.933594 208.027344 209.933594 "/><path style=" stroke:none;fill-rule:nonzero;fill:#f9f8f6;fill-opacity:1;" d="M 221.523438 214.394531 L 208.125 214.394531 C 207.765625 214.394531 207.476562 214.101562 207.476562 213.746094 C 207.476562 213.386719 207.765625 213.09375 208.125 213.09375 L 221.5 213.09375 C 221.894531 213.066406 227.007812 212.558594 227.007812 206.867188 C 227.007812 206.507812 227.300781 206.214844 227.65625 206.214844 C 228.015625 206.214844 228.308594 206.507812 228.308594 206.867188 C 228.308594 213.898438 221.628906 214.386719 221.5625 214.390625 C 221.550781 214.394531 221.535156 214.394531 221.523438 214.394531 "/><g clip-rule="nonzero" clip-path="url(#31926b1afe)"><path style=" stroke:none;fill-rule:nonzero;fill:#9b86b3;fill-opacity:1;" d="M 187.480469 114.445312 C 147.210938 114.445312 114.445312 147.210938 114.445312 187.480469 C 114.445312 227.75 147.210938 260.511719 187.480469 260.511719 C 227.75 260.511719 260.511719 227.75 260.511719 187.480469 C 260.511719 147.210938 227.75 114.445312 187.480469 114.445312 Z M 187.480469 262.476562 C 167.449219 262.476562 148.617188 254.675781 134.449219 240.511719 C 120.285156 226.347656 112.484375 207.511719 112.484375 187.480469 C 112.484375 167.449219 120.285156 148.617188 134.449219 134.449219 C 148.617188 120.285156 167.449219 112.484375 187.480469 112.484375 C 207.511719 112.484375 226.347656 120.285156 240.511719 134.449219 C 254.675781 148.617188 262.476562 167.449219 262.476562 187.480469 C 262.476562 207.511719 254.675781 226.347656 240.511719 240.511719 C 226.347656 254.675781 207.511719 262.476562 187.480469 262.476562 "/></g><path style=" stroke:none;fill-rule:nonzero;fill:#9b86b3;fill-opacity:1;" d="M 145.199219 214.347656 C 144.863281 214.347656 144.535156 214.171875 144.355469 213.863281 C 139.839844 206.207031 137.453125 197.433594 137.453125 188.496094 C 137.453125 177.066406 141.207031 166.308594 148.304688 157.382812 C 148.640625 156.960938 149.257812 156.890625 149.683594 157.226562 C 150.109375 157.5625 150.179688 158.179688 149.839844 158.605469 C 143.023438 167.179688 139.417969 177.515625 139.417969 188.496094 C 139.417969 197.085938 141.707031 205.511719 146.042969 212.867188 C 146.320312 213.335938 146.164062 213.933594 145.695312 214.210938 C 145.542969 214.300781 145.371094 214.347656 145.199219 214.347656 "/><path style=" stroke:none;fill-rule:nonzero;fill:#9b86b3;fill-opacity:1;" d="M 187.480469 238.523438 C 173.296875 238.523438 159.722656 232.464844 150.242188 221.902344 C 149.878906 221.5 149.910156 220.878906 150.316406 220.515625 C 150.71875 220.152344 151.339844 220.1875 151.703125 220.589844 C 160.8125 230.738281 173.851562 236.558594 187.480469 236.558594 C 200.71875 236.558594 213.054688 231.289062 222.210938 221.722656 C 222.585938 221.328125 223.207031 221.316406 223.597656 221.691406 C 223.988281 222.066406 224.003906 222.6875 223.628906 223.078125 C 214.097656 233.039062 201.261719 238.523438 187.480469 238.523438 "/><path style=" stroke:none;fill-rule:nonzero;fill:#9b86b3;fill-opacity:1;" d="M 230.589844 212.882812 C 230.433594 212.882812 230.269531 212.84375 230.121094 212.761719 C 229.644531 212.503906 229.472656 211.90625 229.730469 211.433594 C 233.53125 204.4375 235.542969 196.507812 235.542969 188.496094 C 235.542969 161.996094 213.980469 140.433594 187.480469 140.433594 C 184.035156 140.433594 180.597656 140.800781 177.261719 141.523438 C 176.730469 141.636719 176.207031 141.300781 176.09375 140.769531 C 175.980469 140.242188 176.316406 139.71875 176.84375 139.605469 C 180.316406 138.851562 183.894531 138.46875 187.480469 138.46875 C 215.066406 138.46875 237.507812 160.914062 237.507812 188.496094 C 237.507812 196.835938 235.414062 205.089844 231.453125 212.371094 C 231.273438 212.695312 230.9375 212.882812 230.589844 212.882812 "/></g></svg>