<svg xmlns="http://www.w3.org/2000/svg" xmlns:xlink="http://www.w3.org/1999/xlink" width="500" zoomAndPan="magnify" viewBox="0 0 375 374.999991" height="500" preserveAspectRatio="xMidYMid meet" version="1.2"><defs><clipPath id="87060ea9e2"><path d="M 187.5 0 C 83.945312 0 0 83.945312 0 187.5 C 0 291.054688 83.945312 375 187.5 375 C 291.054688 375 375 291.054688 375 187.5 C 375 83.945312 291.054688 0 187.5 0 Z M 187.5 0 "/></clipPath><clipPath id="27e3f525cc"><path d="M 59.039062 59.039062 L 315.960938 59.039062 L 315.960938 315.960938 L 59.039062 315.960938 Z M 59.039062 59.039062 "/></clipPath><clipPath id="206a50206b"><path d="M 187.5 59.039062 C 116.550781 59.039062 59.039062 116.550781 59.039062 187.5 C 59.039062 258.449219 116.550781 315.960938 187.5 315.960938 C 258.449219 315.960938 315.960938 258.449219 315.960938 187.5 C 315.960938 116.550781 258.449219 59.039062 187.5 59.039062 Z M 187.5 59.039062 "/></clipPath><clipPath id="05052593c8"><path d="M 59.039062 59.039062 L 315.960938 59.039062 L 315.960938 315.960938 L 59.039062 315.960938 Z M 59.039062 59.039062 "/></clipPath><clipPath id="8c3f117920"><path d="M 187.5 59.039062 C 116.550781 59.039062 59.039062 116.550781 59.039062 187.5 C 59.039062 258.445312 116.550781 315.960938 187.5 315.960938 C 258.445312 315.960938 315.960938 258.445312 315.960938 187.5 C 315.960938 116.550781 258.445312 59.039062 187.5 59.039062 Z M 187.5 59.039062 "/></clipPath><clipPath id="43171020ec"><path d="M 49.96875 103.492188 L 59.039062 103.492188 L 59.039062 112.5625 L 49.96875 112.5625 Z M 49.96875 103.492188 "/></clipPath><clipPath id="a2ee2ed27b"><path d="M 54.503906 103.492188 C 52 103.492188 49.96875 105.523438 49.96875 108.027344 C 49.96875 110.53125 52 112.5625 54.503906 112.5625 C 57.007812 112.5625 59.039062 110.53125 59.039062 108.027344 C 59.039062 105.523438 57.007812 103.492188 54.503906 103.492188 Z M 54.503906 103.492188 "/></clipPath><clipPath id="d11308ebb1"><path d="M 315.960938 108.027344 L 325.03125 108.027344 L 325.03125 117.097656 L 315.960938 117.097656 Z M 315.960938 108.027344 "/></clipPath><clipPath id="a166488353"><path d="M 320.496094 108.027344 C 317.992188 108.027344 315.960938 110.058594 315.960938 112.5625 C 315.960938 115.066406 317.992188 117.097656 320.496094 117.097656 C 323 117.097656 325.03125 115.066406 325.03125 112.5625 C 325.03125 110.058594 323 108.027344 320.496094 108.027344 Z M 320.496094 108.027344 "/></clipPath><clipPath id="598ca9cd43"><path d="M 87.667969 87.667969 L 287.167969 87.667969 L 287.167969 287.167969 L 87.667969 287.167969 Z M 87.667969 87.667969 "/></clipPath></defs><g id="529d4142e8"><g clip-rule="nonzero" clip-path="url(#87060ea9e2)"><rect x="0" width="375" y="0" height="374.999991" style="fill:#f9f8f6;fill-opacity:1;stroke:none;"/><path style="fill:none;stroke-width:8;stroke-linecap:butt;stroke-linejoin:miter;stroke:#000000;stroke-opacity:1;stroke-miterlimit:4;" d="M 249.999994 -0.000000000000085265 C 111.927078 -0.000000000000085265 -0.000006 111.927084 -0.000006 250 C -0.000006 388.072917 111.927078 500.000001 249.999994 500.000001 C 388.072911 500.000001 499.999995 388.072917 499.999995 250 C 499.999995 111.927084 388.072911 -0.000000000000085265 249.999994 -0.000000000000085265 Z M 249.999994 -0.000000000000085265 " transform="matrix(0.75,0,0,0.75,0.0000045,0.000000000000063949)"/></g><g clip-rule="nonzero" clip-path="url(#27e3f525cc)"><g clip-rule="nonzero" clip-path="url(#206a50206b)"><path style=" stroke:none;fill-rule:nonzero;fill:#494848;fill-opacity:1;" d="M 59.039062 59.039062 L 315.960938 59.039062 L 315.960938 315.960938 L 59.039062 315.960938 Z M 59.039062 59.039062 "/></g></g><g clip-rule="nonzero" clip-path="url(#05052593c8)"><g clip-rule="nonzero" clip-path="url(#8c3f117920)"><path style="fill:none;stroke-width:8;stroke-linecap:butt;stroke-linejoin:miter;stroke:#000000;stroke-opacity:1;stroke-miterlimit:4;" d="M 171.2821 0.000844769 C 76.683135 0.000844769 0.000838769 76.683141 0.000838769 171.282106 C 0.000838769 265.875862 76.683135 342.563367 171.2821 342.563367 C 265.875856 342.563367 342.563361 265.875862 342.563361 171.282106 C 342.563361 76.683141 265.875856 0.000844769 171.2821 0.000844769 Z M 171.2821 0.000844769 " transform="matrix(0.75,0,0,0.75,59.038433,59.038429)"/></g></g><g style="fill:#000000;fill-opacity:1;"><g transform="translate(83.919457, 86.125213)"><path style="stroke:none" d="M 8.828125 -23.234375 C 10.546875 -21.222656 11.609375 -19.234375 12.015625 -17.265625 C 12.429688 -15.296875 12.238281 -13.378906 11.4375 -11.515625 C 10.632812 -9.660156 9.242188 -7.894531 7.265625 -6.21875 L 2.4375 -2.078125 L -12.765625 -19.875 L -7.40625 -24.46875 C -5.582031 -26.019531 -3.738281 -27.019531 -1.875 -27.46875 C -0.0078125 -27.925781 1.832031 -27.804688 3.65625 -27.109375 C 5.476562 -26.421875 7.203125 -25.128906 8.828125 -23.234375 Z M 6.703125 -21.296875 C 5.335938 -22.890625 3.941406 -23.976562 2.515625 -24.5625 C 1.097656 -25.15625 -0.335938 -25.265625 -1.796875 -24.890625 C -3.253906 -24.515625 -4.726562 -23.691406 -6.21875 -22.421875 L -9.203125 -19.875 L 2.984375 -5.625 L 5.5 -7.78125 C 7.957031 -9.875 9.28125 -12.050781 9.46875 -14.3125 C 9.664062 -16.570312 8.742188 -18.898438 6.703125 -21.296875 Z M 6.703125 -21.296875 "/></g></g><g style="fill:#000000;fill-opacity:1;"><g transform="translate(115.020418, 62.529129)"><path style="stroke:none" d="M 14.578125 -7.15625 L 2.875 -1.40625 L -7.4375 -22.421875 L 4.265625 -28.171875 L 5.3125 -26.015625 L -3.953125 -21.46875 L -0.609375 -14.671875 L 8.109375 -18.953125 L 9.15625 -16.8125 L 0.4375 -12.53125 L 4.25 -4.765625 L 13.515625 -9.3125 Z M 14.578125 -7.15625 "/></g></g><g style="fill:#000000;fill-opacity:1;"><g transform="translate(145.904653, 49.260828)"><path style="stroke:none" d="M 17.46875 -3.828125 L 13.0625 -10.484375 L 3.90625 -8.46875 L 2.6875 -0.59375 L 0 0 L 3.90625 -24.921875 L 6.3125 -25.453125 L 20.21875 -4.4375 Z M 11.75 -12.640625 L 7.5 -19.28125 C 7.394531 -19.457031 7.222656 -19.742188 6.984375 -20.140625 C 6.753906 -20.535156 6.515625 -20.941406 6.265625 -21.359375 C 6.015625 -21.785156 5.816406 -22.132812 5.671875 -22.40625 C 5.660156 -21.945312 5.640625 -21.492188 5.609375 -21.046875 C 5.578125 -20.597656 5.546875 -20.179688 5.515625 -19.796875 C 5.484375 -19.421875 5.445312 -19.097656 5.40625 -18.828125 L 4.265625 -11 Z M 11.75 -12.640625 "/></g></g><g style="fill:#000000;fill-opacity:1;"><g transform="translate(181.474371, 43.43561)"><path style="stroke:none" d="M 10.265625 -23.09375 C 12.179688 -23.03125 13.753906 -22.738281 14.984375 -22.21875 C 16.222656 -21.707031 17.132812 -20.957031 17.71875 -19.96875 C 18.3125 -18.988281 18.585938 -17.742188 18.546875 -16.234375 C 18.503906 -15.003906 18.242188 -13.976562 17.765625 -13.15625 C 17.296875 -12.34375 16.691406 -11.691406 15.953125 -11.203125 C 15.222656 -10.722656 14.441406 -10.351562 13.609375 -10.09375 L 19.6875 0.625 L 16.515625 0.515625 L 11.109375 -9.421875 L 6.234375 -9.578125 L 5.921875 0.1875 L 3.203125 0.09375 L 3.9375 -23.296875 Z M 10.03125 -20.75 L 6.578125 -20.859375 L 6.296875 -11.890625 L 10.015625 -11.78125 C 11.921875 -11.71875 13.335938 -12.054688 14.265625 -12.796875 C 15.203125 -13.546875 15.695312 -14.675781 15.75 -16.1875 C 15.789062 -17.78125 15.34375 -18.921875 14.40625 -19.609375 C 13.46875 -20.304688 12.007812 -20.6875 10.03125 -20.75 Z M 10.03125 -20.75 "/></g></g><g style="fill:#000000;fill-opacity:1;"><g transform="translate(217.253493, 46.805036)"><path style="stroke:none" d=""/></g></g><g style="fill:#000000;fill-opacity:1;"><g transform="translate(240.525698, 53.378528)"><path style="stroke:none" d="M 18.765625 9.3125 L 16.328125 8.09375 L 21.234375 -1.796875 L 10.21875 -7.265625 L 5.3125 2.625 L 2.875 1.421875 L 13.265625 -19.546875 L 15.703125 -18.34375 L 11.28125 -9.421875 L 22.296875 -3.953125 L 26.71875 -12.875 L 29.15625 -11.65625 Z M 18.765625 9.3125 "/></g></g><g style="fill:#000000;fill-opacity:1;"><g transform="translate(274.740168, 72.814022)"><path style="stroke:none" d="M 22.578125 -11.34375 C 24.023438 -10.082031 25.0625 -8.859375 25.6875 -7.671875 C 26.320312 -6.492188 26.554688 -5.332031 26.390625 -4.1875 C 26.222656 -3.050781 25.640625 -1.914062 24.640625 -0.78125 C 23.828125 0.15625 22.976562 0.785156 22.09375 1.109375 C 21.207031 1.429688 20.320312 1.546875 19.4375 1.453125 C 18.5625 1.359375 17.722656 1.144531 16.921875 0.8125 L 14.828125 12.96875 L 12.4375 10.875 L 14.546875 -0.25 L 10.875 -3.46875 L 4.453125 3.890625 L 2.40625 2.109375 L 17.8125 -15.515625 Z M 20.921875 -9.6875 L 18.3125 -11.96875 L 12.40625 -5.203125 L 15.203125 -2.75 C 16.640625 -1.488281 17.953125 -0.851562 19.140625 -0.84375 C 20.335938 -0.832031 21.4375 -1.398438 22.4375 -2.546875 C 23.488281 -3.742188 23.867188 -4.90625 23.578125 -6.03125 C 23.296875 -7.164062 22.410156 -8.382812 20.921875 -9.6875 Z M 20.921875 -9.6875 "/></g></g><g clip-rule="nonzero" clip-path="url(#43171020ec)"><g clip-rule="nonzero" clip-path="url(#a2ee2ed27b)"><path style=" stroke:none;fill-rule:nonzero;fill:#2b2a28;fill-opacity:1;" d="M 49.96875 103.492188 L 59.039062 103.492188 L 59.039062 112.5625 L 49.96875 112.5625 Z M 49.96875 103.492188 "/></g></g><g clip-rule="nonzero" clip-path="url(#d11308ebb1)"><g clip-rule="nonzero" clip-path="url(#a166488353)"><path style=" stroke:none;fill-rule:nonzero;fill:#2b2a28;fill-opacity:1;" d="M 315.960938 108.027344 L 325.03125 108.027344 L 325.03125 117.097656 L 315.960938 117.097656 Z M 315.960938 108.027344 "/></g></g><g style="fill:#000000;fill-opacity:1;"><g transform="translate(25.827847, 140.36888)"><path style="stroke:none" d="M 2.625 17.359375 C 1.257812 17.066406 0.175781 16.476562 -0.625 15.59375 C -1.4375 14.707031 -1.960938 13.609375 -2.203125 12.296875 C -2.441406 10.992188 -2.382812 9.519531 -2.03125 7.875 C -1.84375 7.007812 -1.625 6.195312 -1.375 5.4375 C -1.125 4.6875 -0.847656 4.003906 -0.546875 3.390625 C -0.253906 2.773438 0.0546875 2.25 0.390625 1.8125 L 2.9375 2.375 C 2.445312 3.070312 1.941406 3.953125 1.421875 5.015625 C 0.898438 6.085938 0.507812 7.238281 0.25 8.46875 C 0 9.625 -0.0546875 10.628906 0.078125 11.484375 C 0.222656 12.335938 0.535156 13.03125 1.015625 13.5625 C 1.503906 14.101562 2.15625 14.460938 2.96875 14.640625 C 3.757812 14.804688 4.453125 14.773438 5.046875 14.546875 C 5.648438 14.328125 6.253906 13.863281 6.859375 13.15625 C 7.460938 12.445312 8.160156 11.457031 8.953125 10.1875 C 9.515625 9.289062 10.082031 8.515625 10.65625 7.859375 C 11.226562 7.210938 11.828125 6.691406 12.453125 6.296875 C 13.078125 5.910156 13.757812 5.664062 14.5 5.5625 C 15.25 5.457031 16.066406 5.5 16.953125 5.6875 C 18.179688 5.945312 19.160156 6.476562 19.890625 7.28125 C 20.628906 8.09375 21.113281 9.101562 21.34375 10.3125 C 21.570312 11.519531 21.53125 12.835938 21.21875 14.265625 C 20.957031 15.492188 20.597656 16.597656 20.140625 17.578125 C 19.691406 18.566406 19.179688 19.453125 18.609375 20.234375 L 16.5 18.890625 C 17.019531 18.148438 17.492188 17.34375 17.921875 16.46875 C 18.347656 15.59375 18.664062 14.664062 18.875 13.6875 C 19.082031 12.707031 19.117188 11.847656 18.984375 11.109375 C 18.847656 10.378906 18.554688 9.78125 18.109375 9.3125 C 17.660156 8.84375 17.078125 8.53125 16.359375 8.375 C 15.554688 8.195312 14.851562 8.222656 14.25 8.453125 C 13.644531 8.679688 13.050781 9.125 12.46875 9.78125 C 11.894531 10.4375 11.253906 11.332031 10.546875 12.46875 C 9.765625 13.71875 9 14.75 8.25 15.5625 C 7.5 16.382812 6.675781 16.953125 5.78125 17.265625 C 4.882812 17.585938 3.832031 17.617188 2.625 17.359375 Z M 2.625 17.359375 "/></g></g><g style="fill:#000000;fill-opacity:1;"><g transform="translate(19.600327, 179.021046)"><path style="stroke:none" d="M 0.75 13.484375 L 21 4.46875 L 21 4.34375 C 20.5625 4.414062 20.023438 4.484375 19.390625 4.546875 C 18.765625 4.609375 18.082031 4.671875 17.34375 4.734375 C 16.601562 4.796875 15.851562 4.847656 15.09375 4.890625 L 0.3125 5.71875 L 0.171875 3.203125 L 23.546875 1.90625 L 23.78125 5.921875 L 4.75 14.421875 L 4.75 14.53125 L 24.609375 20.96875 L 24.828125 24.953125 L 1.453125 26.25 L 1.3125 23.578125 L 16.28125 22.75 C 16.96875 22.707031 17.660156 22.675781 18.359375 22.65625 C 19.054688 22.644531 19.71875 22.632812 20.34375 22.625 C 20.96875 22.625 21.515625 22.628906 21.984375 22.640625 L 21.96875 22.515625 L 0.875 15.6875 Z M 0.75 13.484375 "/></g></g><g style="fill:#000000;fill-opacity:1;"><g transform="translate(25.93971, 229.254174)"><path style="stroke:none" d="M 5.84375 16.90625 L 11.921875 11.75 L 8.859375 2.890625 L 0.890625 2.59375 L 0 0 L 25.21875 0.984375 L 26.015625 3.296875 L 6.75 19.5625 Z M 13.9375 10.1875 L 20.03125 5.203125 C 20.1875 5.078125 20.445312 4.875 20.8125 4.59375 C 21.175781 4.320312 21.554688 4.035156 21.953125 3.734375 C 22.347656 3.429688 22.671875 3.191406 22.921875 3.015625 C 22.460938 3.054688 22.007812 3.085938 21.5625 3.109375 C 21.113281 3.140625 20.691406 3.160156 20.296875 3.171875 C 19.910156 3.179688 19.585938 3.179688 19.328125 3.171875 L 11.4375 2.953125 Z M 13.9375 10.1875 "/></g></g><g style="fill:#000000;fill-opacity:1;"><g transform="translate(41.948441, 267.637011)"><path style="stroke:none" d="M 24.796875 -4.84375 C 25.847656 -3.238281 26.519531 -1.78125 26.8125 -0.46875 C 27.101562 0.832031 27.015625 2.007812 26.546875 3.0625 C 26.078125 4.113281 25.207031 5.054688 23.9375 5.890625 C 22.90625 6.566406 21.921875 6.941406 20.984375 7.015625 C 20.046875 7.097656 19.164062 6.972656 18.34375 6.640625 C 17.519531 6.316406 16.765625 5.882812 16.078125 5.34375 L 10.796875 16.484375 L 9.046875 13.828125 L 14.078125 3.6875 L 11.421875 -0.390625 L 3.25 4.953125 L 1.75 2.6875 L 21.328125 -10.125 Z M 22.765625 -3.6875 L 20.875 -6.578125 L 13.359375 -1.65625 L 15.390625 1.453125 C 16.429688 3.046875 17.519531 4.007812 18.65625 4.34375 C 19.800781 4.675781 21.015625 4.425781 22.296875 3.59375 C 23.628906 2.71875 24.3125 1.695312 24.34375 0.53125 C 24.375 -0.625 23.847656 -2.03125 22.765625 -3.6875 Z M 22.765625 -3.6875 "/></g></g><g style="fill:#000000;fill-opacity:1;"><g transform="translate(66.529705, 300.43445)"><path style="stroke:none" d="M 7.578125 7.109375 L 5.59375 5.234375 L 19.953125 -10.109375 L 14.5625 -15.15625 L 16.203125 -16.890625 L 28.9375 -4.953125 L 27.296875 -3.21875 L 21.9375 -8.234375 Z M 7.578125 7.109375 "/></g></g><g style="fill:#000000;fill-opacity:1;"><g transform="translate(96.198031, 324.761316)"><path style="stroke:none" d=""/></g></g><g style="fill:#000000;fill-opacity:1;"><g transform="translate(121.635358, 338.625608)"><path style="stroke:none" d="M 16.84375 -18.84375 C 18.65625 -18.195312 20.070312 -17.4375 21.09375 -16.5625 C 22.125 -15.695312 22.765625 -14.703125 23.015625 -13.578125 C 23.273438 -12.453125 23.148438 -11.175781 22.640625 -9.75 C 22.222656 -8.582031 21.664062 -7.679688 20.96875 -7.046875 C 20.269531 -6.421875 19.492188 -5.988281 18.640625 -5.75 C 17.785156 -5.519531 16.921875 -5.414062 16.046875 -5.4375 L 18.546875 6.640625 L 15.5625 5.5625 L 13.453125 -5.5625 L 8.859375 -7.203125 L 5.578125 2 L 3.015625 1.078125 L 10.890625 -20.96875 Z M 15.921875 -16.671875 L 12.671875 -17.828125 L 9.640625 -9.375 L 13.140625 -8.125 C 14.929688 -7.488281 16.382812 -7.378906 17.5 -7.796875 C 18.613281 -8.222656 19.429688 -9.15625 19.953125 -10.59375 C 20.484375 -12.09375 20.410156 -13.3125 19.734375 -14.25 C 19.054688 -15.195312 17.785156 -16.003906 15.921875 -16.671875 Z M 15.921875 -16.671875 "/></g></g><g style="fill:#000000;fill-opacity:1;"><g transform="translate(161.032958, 349.947672)"><path style="stroke:none" d="M 16.140625 1.6875 L 3.1875 0.328125 L 5.625 -22.953125 L 18.578125 -21.59375 L 18.328125 -19.21875 L 8.078125 -20.296875 L 7.28125 -12.75 L 16.953125 -11.734375 L 16.71875 -9.375 L 7.046875 -10.390625 L 6.140625 -1.78125 L 16.390625 -0.703125 Z M 16.140625 1.6875 "/></g></g><g style="fill:#000000;fill-opacity:1;"><g transform="translate(200.00561, 351.656142)"><path style="stroke:none" d="M 10.1875 -22.9375 C 8.90625 -22.757812 7.785156 -22.378906 6.828125 -21.796875 C 5.867188 -21.222656 5.085938 -20.472656 4.484375 -19.546875 C 3.878906 -18.617188 3.46875 -17.539062 3.25 -16.3125 C 3.039062 -15.09375 3.035156 -13.742188 3.234375 -12.265625 C 3.503906 -10.328125 4.035156 -8.679688 4.828125 -7.328125 C 5.628906 -5.972656 6.691406 -4.988281 8.015625 -4.375 C 9.335938 -3.757812 10.90625 -3.578125 12.71875 -3.828125 C 13.757812 -3.972656 14.722656 -4.191406 15.609375 -4.484375 C 16.503906 -4.785156 17.367188 -5.128906 18.203125 -5.515625 L 18.53125 -3.171875 C 17.726562 -2.734375 16.867188 -2.375 15.953125 -2.09375 C 15.046875 -1.820312 13.953125 -1.597656 12.671875 -1.421875 C 10.316406 -1.097656 8.28125 -1.3125 6.5625 -2.0625 C 4.84375 -2.820312 3.46875 -4.039062 2.4375 -5.71875 C 1.40625 -7.40625 0.722656 -9.460938 0.390625 -11.890625 C 0.148438 -13.640625 0.175781 -15.273438 0.46875 -16.796875 C 0.757812 -18.328125 1.304688 -19.6875 2.109375 -20.875 C 2.910156 -22.0625 3.960938 -23.039062 5.265625 -23.8125 C 6.566406 -24.582031 8.113281 -25.085938 9.90625 -25.328125 C 11.070312 -25.492188 12.210938 -25.53125 13.328125 -25.4375 C 14.453125 -25.351562 15.484375 -25.160156 16.421875 -24.859375 L 15.65625 -22.40625 C 14.875 -22.65625 14.019531 -22.835938 13.09375 -22.953125 C 12.175781 -23.078125 11.207031 -23.070312 10.1875 -22.9375 Z M 10.1875 -22.9375 "/></g></g><g style="fill:#000000;fill-opacity:1;"><g transform="translate(240.690967, 343.45193)"><path style="stroke:none" d="M 0.09375 -25.265625 C 1.863281 -25.984375 3.421875 -26.359375 4.765625 -26.390625 C 6.109375 -26.421875 7.242188 -26.097656 8.171875 -25.421875 C 9.109375 -24.753906 9.863281 -23.722656 10.4375 -22.328125 C 10.894531 -21.179688 11.070312 -20.140625 10.96875 -19.203125 C 10.875 -18.265625 10.582031 -17.421875 10.09375 -16.671875 C 9.613281 -15.929688 9.039062 -15.28125 8.375 -14.71875 L 18.28125 -7.359375 L 15.328125 -6.1875 L 6.359375 -13.09375 L 1.84375 -11.28125 L 5.5 -2.21875 L 2.96875 -1.203125 L -5.78125 -22.90625 Z M 0.8125 -23.03125 L -2.375 -21.75 L 0.984375 -13.421875 L 4.421875 -14.8125 C 6.191406 -15.519531 7.347656 -16.398438 7.890625 -17.453125 C 8.441406 -18.515625 8.4375 -19.753906 7.875 -21.171875 C 7.269531 -22.640625 6.398438 -23.5 5.265625 -23.75 C 4.140625 -24.007812 2.65625 -23.769531 0.8125 -23.03125 Z M 0.8125 -23.03125 "/></g></g><g style="fill:#000000;fill-opacity:1;"><g transform="translate(277.938141, 325.773797)"><path style="stroke:none" d="M 2.796875 -31.265625 L 11.84375 -19.125 C 12.832031 -17.800781 13.441406 -16.421875 13.671875 -14.984375 C 13.898438 -13.546875 13.695312 -12.128906 13.0625 -10.734375 C 12.425781 -9.335938 11.296875 -8.03125 9.671875 -6.8125 C 7.359375 -5.09375 5.125 -4.410156 2.96875 -4.765625 C 0.820312 -5.117188 -1.035156 -6.347656 -2.609375 -8.453125 L -11.609375 -20.546875 L -9.40625 -22.171875 L -0.359375 -10.015625 C 0.835938 -8.421875 2.175781 -7.503906 3.65625 -7.265625 C 5.144531 -7.035156 6.726562 -7.546875 8.40625 -8.796875 C 9.550781 -9.648438 10.332031 -10.554688 10.75 -11.515625 C 11.175781 -12.472656 11.285156 -13.457031 11.078125 -14.46875 C 10.878906 -15.488281 10.410156 -16.492188 9.671875 -17.484375 L 0.609375 -29.640625 Z M 2.796875 -31.265625 "/></g></g><g style="fill:#000000;fill-opacity:1;"><g transform="translate(311.616112, 296.814154)"><path style="stroke:none" d="M 2.078125 -2.4375 L -15.703125 -17.671875 L -13.921875 -19.734375 L 3.859375 -4.5 Z M 2.078125 -2.4375 "/></g></g><g style="fill:#000000;fill-opacity:1;"><g transform="translate(329.577182, 273.354077)"><path style="stroke:none" d="M 5.03125 -9.09375 L 3.703125 -6.703125 L -14.6875 -16.875 L -18.25 -10.421875 L -20.34375 -11.578125 L -11.90625 -26.84375 L -9.8125 -25.6875 L -13.359375 -19.265625 Z M 5.03125 -9.09375 "/></g></g><g style="fill:#000000;fill-opacity:1;"><g transform="translate(345.9181, 238.616737)"><path style="stroke:none" d="M 0.953125 -3.0625 L -21.390625 -10.03125 L -20.578125 -12.625 L 1.765625 -5.65625 Z M 0.953125 -3.0625 "/></g></g><g style="fill:#000000;fill-opacity:1;"><g transform="translate(353.395459, 209.752276)"><path style="stroke:none" d="M 1.671875 -21.4375 L 1.421875 -18.3125 L -19.171875 -7.125 L -19.1875 -7 C -18.65625 -6.988281 -18.054688 -6.976562 -17.390625 -6.96875 C -16.722656 -6.957031 -16.015625 -6.9375 -15.265625 -6.90625 C -14.515625 -6.875 -13.75 -6.828125 -12.96875 -6.765625 L 0.4375 -5.71875 L 0.25 -3.1875 L -23.078125 -5 L -22.84375 -8.125 L -2.3125 -19.28125 L -2.3125 -19.390625 C -2.6875 -19.398438 -3.21875 -19.414062 -3.90625 -19.4375 C -4.601562 -19.457031 -5.347656 -19.484375 -6.140625 -19.515625 C -6.929688 -19.546875 -7.664062 -19.585938 -8.34375 -19.640625 L -21.859375 -20.6875 L -21.65625 -23.25 Z M 1.671875 -21.4375 "/></g></g><g style="fill:#000000;fill-opacity:1;"><g transform="translate(354.0216, 163.93754)"><path style="stroke:none" d="M -14.578125 -10.609375 L -16.15625 -18.625 L -5.015625 -20.8125 C -4.367188 -19.695312 -3.820312 -18.519531 -3.375 -17.28125 C -2.925781 -16.039062 -2.546875 -14.640625 -2.234375 -13.078125 C -1.765625 -10.679688 -1.847656 -8.566406 -2.484375 -6.734375 C -3.117188 -4.910156 -4.234375 -3.40625 -5.828125 -2.21875 C -7.421875 -1.03125 -9.4375 -0.195312 -11.875 0.28125 C -14.257812 0.75 -16.425781 0.6875 -18.375 0.09375 C -20.320312 -0.488281 -21.960938 -1.570312 -23.296875 -3.15625 C -24.628906 -4.738281 -25.539062 -6.773438 -26.03125 -9.265625 C -26.28125 -10.546875 -26.394531 -11.78125 -26.375 -12.96875 C -26.363281 -14.164062 -26.242188 -15.300781 -26.015625 -16.375 L -23.484375 -15.8125 C -23.679688 -14.894531 -23.804688 -13.894531 -23.859375 -12.8125 C -23.921875 -11.738281 -23.847656 -10.660156 -23.640625 -9.578125 C -23.273438 -7.703125 -22.570312 -6.171875 -21.53125 -4.984375 C -20.5 -3.804688 -19.207031 -3 -17.65625 -2.5625 C -16.101562 -2.132812 -14.359375 -2.113281 -12.421875 -2.5 C -10.503906 -2.875 -8.894531 -3.503906 -7.59375 -4.390625 C -6.300781 -5.285156 -5.390625 -6.46875 -4.859375 -7.9375 C -4.328125 -9.40625 -4.265625 -11.171875 -4.671875 -13.234375 C -4.878906 -14.265625 -5.113281 -15.140625 -5.375 -15.859375 C -5.644531 -16.585938 -5.921875 -17.238281 -6.203125 -17.8125 L -13.234375 -16.4375 L -12.1875 -11.078125 Z M -14.578125 -10.609375 "/></g></g><path style=" stroke:none;fill-rule:nonzero;fill:#f9f8f6;fill-opacity:1;" d="M 188.050781 231.144531 C 185.621094 231.144531 182.835938 230.949219 180.164062 230.550781 C 174.449219 229.695312 166.828125 227.617188 161.800781 222.585938 C 159.636719 224.972656 154.335938 229.515625 145.289062 229.515625 L 133.914062 229.515625 C 133.34375 229.515625 132.828125 229.179688 132.597656 228.660156 C 132.367188 228.140625 132.464844 227.53125 132.847656 227.109375 C 133.222656 226.699219 142.074219 217.074219 151.773438 215.972656 C 152.375 215.90625 152.859375 215.839844 153.242188 215.777344 C 153.078125 215.664062 152.910156 215.558594 152.753906 215.453125 C 150.792969 214.164062 148.113281 212.402344 146.503906 209.75 C 142.234375 202.703125 141.082031 192.945312 142.988281 179.929688 C 143.539062 176.175781 144.402344 171.984375 145.242188 167.933594 C 147.4375 157.328125 149.921875 145.304688 146.085938 142.855469 C 139.410156 138.585938 137.867188 135.117188 136.992188 128.976562 C 136.816406 128.242188 136.898438 127.140625 137.695312 126.265625 C 138.890625 124.953125 141.179688 124.65625 144.695312 125.359375 C 146.414062 125.703125 148.722656 126.066406 151.167969 126.449219 C 161.632812 128.09375 168.605469 129.367188 170.148438 131.988281 C 171.183594 133.75 173.039062 139.796875 175.96875 149.550781 C 177.589844 154.929688 179.261719 160.492188 180.414062 163.730469 C 183.050781 171.152344 193.4375 175.984375 200.308594 179.179688 L 200.546875 179.289062 C 226.007812 191.128906 239.347656 200.382812 241.332031 207.570312 C 243.210938 214.378906 242.320312 221.960938 239.121094 226.445312 C 237.542969 228.660156 235.558594 229.902344 233.386719 230.039062 C 227.796875 230.386719 203.511719 230.054688 202.480469 230.042969 C 201.964844 230.035156 201.496094 229.753906 201.242188 229.300781 C 200.996094 228.851562 201.003906 228.304688 201.269531 227.863281 C 201.378906 227.675781 203.296875 224.492188 205.476562 221.871094 L 199.011719 221.972656 C 199.003906 221.972656 198.996094 221.972656 198.988281 221.972656 C 198.203125 221.972656 197.5625 221.34375 197.550781 220.558594 C 197.539062 219.761719 198.171875 219.109375 198.96875 219.09375 L 208.953125 218.941406 C 208.960938 218.9375 208.96875 218.9375 208.976562 218.9375 C 209.589844 218.9375 210.136719 219.328125 210.335938 219.914062 C 210.539062 220.503906 210.339844 221.15625 209.839844 221.53125 C 208.371094 222.632812 206.464844 225.191406 205.113281 227.195312 C 211.683594 227.273438 228.785156 227.441406 233.207031 227.164062 C 234.820312 227.066406 236.042969 225.808594 236.78125 224.773438 C 239.046875 221.597656 240.472656 215.285156 238.558594 208.339844 C 237.820312 205.664062 234.195312 200.851562 221.128906 193.121094 C 212.519531 188.035156 203.277344 183.734375 199.332031 181.898438 L 199.097656 181.789062 C 191.789062 178.390625 180.742188 173.253906 177.699219 164.695312 C 176.523438 161.390625 174.84375 155.792969 173.214844 150.378906 C 171.050781 143.1875 168.601562 135.039062 167.667969 133.449219 C 167.609375 133.351562 166.9375 132.464844 161.875 131.292969 C 158.539062 130.519531 154.386719 129.867188 150.722656 129.292969 C 148.246094 128.902344 145.90625 128.535156 144.128906 128.179688 C 140.605469 127.476562 139.859375 128.167969 139.828125 128.195312 C 139.796875 128.230469 139.792969 128.273438 139.796875 128.3125 C 139.828125 128.390625 139.8125 128.386719 139.828125 128.492188 C 140.5625 133.683594 141.574219 136.558594 147.636719 140.429688 C 153.140625 143.945312 150.671875 155.882812 148.0625 168.515625 C 147.230469 172.527344 146.371094 176.675781 145.835938 180.34375 C 144.03125 192.675781 145.054688 201.804688 148.96875 208.257812 C 150.234375 210.355469 152.605469 211.910156 154.332031 213.046875 C 156.183594 214.265625 157.523438 215.144531 157.167969 216.628906 C 156.828125 218.054688 155.261719 218.476562 152.097656 218.832031 C 146.296875 219.492188 140.601562 223.832031 137.460938 226.636719 L 145.289062 226.636719 C 155.691406 226.636719 160.34375 219.871094 160.535156 219.582031 C 160.789062 219.203125 161.207031 218.96875 161.660156 218.945312 C 162.109375 218.921875 162.550781 219.109375 162.84375 219.460938 C 169.882812 227.960938 186.257812 228.71875 191.558594 228.105469 C 190.015625 226.363281 187.34375 223.566406 185.550781 221.734375 C 184.996094 221.167969 185.003906 220.253906 185.574219 219.699219 C 186.140625 219.144531 187.050781 219.152344 187.609375 219.722656 C 188.707031 220.84375 194.242188 226.519531 195.152344 228.003906 C 195.605469 228.738281 195.402344 229.652344 194.671875 230.179688 C 193.785156 230.8125 191.222656 231.144531 188.050781 231.144531 "/><path style=" stroke:none;fill-rule:nonzero;fill:#f9f8f6;fill-opacity:1;" d="M 161.734375 221.816406 C 161.363281 221.816406 160.988281 221.671875 160.707031 221.386719 C 158.839844 219.484375 153.449219 215.914062 153.394531 215.875 C 152.730469 215.441406 152.550781 214.546875 152.988281 213.882812 C 153.425781 213.21875 154.316406 213.039062 154.980469 213.476562 C 155.210938 213.628906 160.683594 217.25 162.761719 219.371094 C 163.320312 219.941406 163.308594 220.851562 162.742188 221.40625 C 162.460938 221.679688 162.097656 221.816406 161.734375 221.816406 "/><path style=" stroke:none;fill-rule:nonzero;fill:#f9f8f6;fill-opacity:1;" d="M 188.125 223.761719 C 187.742188 223.761719 187.363281 223.609375 187.082031 223.3125 C 184.859375 220.976562 174.1875 212.679688 174.078125 212.597656 C 173.453125 212.109375 173.339844 211.207031 173.824219 210.578125 C 174.3125 209.949219 175.214844 209.835938 175.84375 210.324219 C 176.289062 210.671875 186.796875 218.839844 189.167969 221.328125 C 189.714844 221.90625 189.691406 222.816406 189.117188 223.367188 C 188.835938 223.628906 188.480469 223.761719 188.125 223.761719 "/><path style=" stroke:none;fill-rule:nonzero;fill:#f9f8f6;fill-opacity:1;" d="M 208.980469 221.816406 C 208.550781 221.816406 208.125 221.625 207.84375 221.261719 C 207.355469 220.636719 207.464844 219.734375 208.089844 219.246094 C 208.242188 219.125 211.914062 216.292969 220.238281 213.320312 C 220.988281 213.054688 221.8125 213.441406 222.078125 214.191406 C 222.347656 214.941406 221.953125 215.765625 221.207031 216.03125 C 213.378906 218.828125 209.894531 221.488281 209.859375 221.511719 C 209.597656 221.71875 209.285156 221.816406 208.980469 221.816406 "/><path style=" stroke:none;fill-rule:nonzero;fill:#f9f8f6;fill-opacity:1;" d="M 155.242188 155.195312 C 154.527344 155.195312 153.90625 154.65625 153.816406 153.929688 C 153.398438 150.460938 148.695312 145.328125 146.917969 143.644531 C 146.339844 143.097656 146.316406 142.183594 146.863281 141.609375 C 147.410156 141.03125 148.320312 141.007812 148.898438 141.554688 C 149.628906 142.246094 156.054688 148.464844 156.675781 153.582031 C 156.773438 154.371094 156.210938 155.085938 155.417969 155.183594 C 155.359375 155.191406 155.304688 155.195312 155.242188 155.195312 "/><path style=" stroke:none;fill-rule:nonzero;fill:#f9f8f6;fill-opacity:1;" d="M 214.71875 217.257812 C 204.445312 217.257812 183.710938 215.011719 182.78125 214.910156 C 182.308594 214.855469 181.96875 214.433594 182.019531 213.957031 C 182.070312 213.484375 182.492188 213.140625 182.96875 213.191406 C 183.210938 213.21875 207.058594 215.800781 216.382812 215.507812 C 216.855469 215.476562 217.261719 215.863281 217.273438 216.339844 C 217.289062 216.816406 216.917969 217.214844 216.4375 217.230469 C 215.90625 217.246094 215.332031 217.257812 214.71875 217.257812 "/><path style=" stroke:none;fill-rule:nonzero;fill:#f9f8f6;fill-opacity:1;" d="M 232.667969 223.183594 L 214.851562 223.183594 C 214.371094 223.183594 213.984375 222.796875 213.984375 222.320312 C 213.984375 221.84375 214.371094 221.457031 214.851562 221.457031 L 232.636719 221.457031 C 233.160156 221.417969 239.964844 220.746094 239.960938 213.171875 C 239.960938 212.695312 240.351562 212.308594 240.828125 212.308594 C 241.304688 212.308594 241.691406 212.695312 241.691406 213.171875 C 241.691406 222.527344 232.808594 223.179688 232.71875 223.183594 C 232.703125 223.183594 232.6875 223.183594 232.667969 223.183594 "/><g clip-rule="nonzero" clip-path="url(#598ca9cd43)"><path style=" stroke:none;fill-rule:nonzero;fill:#9b86b3;fill-opacity:1;" d="M 187.390625 90.257812 C 133.832031 90.257812 90.257812 133.832031 90.257812 187.390625 C 90.257812 240.953125 133.832031 284.523438 187.390625 284.523438 C 240.953125 284.523438 284.523438 240.953125 284.523438 187.390625 C 284.523438 133.832031 240.953125 90.257812 187.390625 90.257812 Z M 187.390625 287.136719 C 160.746094 287.136719 135.699219 276.761719 116.863281 257.921875 C 98.023438 239.082031 87.644531 214.035156 87.644531 187.390625 C 87.644531 160.746094 98.023438 135.699219 116.863281 116.859375 C 135.699219 98.023438 160.746094 87.644531 187.390625 87.644531 C 214.03125 87.644531 239.082031 98.023438 257.921875 116.859375 C 276.757812 135.699219 287.136719 160.746094 287.136719 187.390625 C 287.136719 214.035156 276.757812 239.082031 257.921875 257.921875 C 239.082031 276.761719 214.035156 287.136719 187.390625 287.136719 "/></g><path style=" stroke:none;fill-rule:nonzero;fill:#9b86b3;fill-opacity:1;" d="M 131.160156 223.121094 C 130.710938 223.121094 130.277344 222.894531 130.035156 222.480469 C 124.03125 212.296875 120.855469 200.628906 120.855469 188.742188 C 120.855469 173.542969 125.847656 159.230469 135.289062 147.363281 C 135.734375 146.796875 136.558594 146.703125 137.121094 147.152344 C 137.683594 147.601562 137.777344 148.421875 137.328125 148.988281 C 128.261719 160.390625 123.46875 174.136719 123.46875 188.742188 C 123.46875 200.164062 126.515625 211.371094 132.28125 221.15625 C 132.648438 221.777344 132.441406 222.574219 131.820312 222.941406 C 131.613281 223.066406 131.382812 223.121094 131.160156 223.121094 "/><path style=" stroke:none;fill-rule:nonzero;fill:#9b86b3;fill-opacity:1;" d="M 187.390625 255.277344 C 168.527344 255.277344 150.472656 247.21875 137.863281 233.171875 C 137.382812 232.636719 137.425781 231.808594 137.960938 231.328125 C 138.5 230.84375 139.324219 230.890625 139.804688 231.425781 C 151.921875 244.925781 169.265625 252.667969 187.390625 252.667969 C 205 252.667969 221.402344 245.65625 233.582031 232.933594 C 234.078125 232.410156 234.90625 232.394531 235.425781 232.890625 C 235.949219 233.390625 235.964844 234.214844 235.46875 234.738281 C 222.792969 247.984375 205.71875 255.277344 187.390625 255.277344 "/><path style=" stroke:none;fill-rule:nonzero;fill:#9b86b3;fill-opacity:1;" d="M 244.726562 221.175781 C 244.515625 221.175781 244.300781 221.125 244.105469 221.015625 C 243.472656 220.671875 243.238281 219.878906 243.582031 219.246094 C 248.640625 209.945312 251.316406 199.398438 251.316406 188.742188 C 251.316406 153.496094 222.636719 124.816406 187.390625 124.816406 C 182.808594 124.816406 178.234375 125.304688 173.796875 126.265625 C 173.09375 126.421875 172.398438 125.972656 172.246094 125.265625 C 172.09375 124.5625 172.542969 123.867188 173.246094 123.714844 C 177.863281 122.714844 182.625 122.207031 187.390625 122.207031 C 224.078125 122.207031 253.925781 152.054688 253.925781 188.742188 C 253.925781 199.832031 251.140625 210.8125 245.875 220.492188 C 245.636719 220.929688 245.1875 221.175781 244.726562 221.175781 "/></g></svg>